<?xml version="1.0" encoding="UTF-8" standalone="no"?>
<!-- Created with Inkscape (http://www.inkscape.org/) -->

<svg
   xmlns:dc="http://purl.org/dc/elements/1.1/"
   xmlns:cc="http://creativecommons.org/ns#"
   xmlns:rdf="http://www.w3.org/1999/02/22-rdf-syntax-ns#"
   xmlns:svg="http://www.w3.org/2000/svg"
   xmlns="http://www.w3.org/2000/svg"
   xmlns:xlink="http://www.w3.org/1999/xlink"
   xmlns:sodipodi="http://sodipodi.sourceforge.net/DTD/sodipodi-0.dtd"
   xmlns:inkscape="http://www.inkscape.org/namespaces/inkscape"
   id="svg4186"
   height="66.835mm"
   viewBox="0 0 236.81679 236.81649"
   width="66.835mm"
   version="1.1"
   inkscape:version="0.91 r13725"
   sodipodi:docname="ant_army_logo_2.svg">
  <defs
     id="defs10">
    <linearGradient
       inkscape:collect="always"
       id="linearGradient4684">
      <stop
         style="stop-color:#ff6600;stop-opacity:1"
         offset="0"
         id="stop4686" />
      <stop
         style="stop-color:#4d4d4d;stop-opacity:1"
         offset="1"
         id="stop4688" />
    </linearGradient>
    <linearGradient
       inkscape:collect="always"
       xlink:href="#linearGradient4684"
       id="linearGradient4690"
       x1="338.35913"
       y1="323.50629"
       x2="334.40286"
       y2="327.09708"
       gradientUnits="userSpaceOnUse" />
    <linearGradient
       inkscape:collect="always"
       xlink:href="#linearGradient4684"
       id="linearGradient4418"
       gradientUnits="userSpaceOnUse"
       x1="338.35913"
       y1="323.50629"
       x2="334.40286"
       y2="327.09708" />
  </defs>
  <sodipodi:namedview
     pagecolor="#ffffff"
     bordercolor="#666666"
     borderopacity="1"
     objecttolerance="10"
     gridtolerance="10"
     guidetolerance="10"
     inkscape:pageopacity="0"
     inkscape:pageshadow="2"
     inkscape:window-width="1920"
     inkscape:window-height="1052"
     id="namedview8"
     showgrid="false"
     inkscape:zoom="1"
     inkscape:cx="387.11852"
     inkscape:cy="87.634834"
     inkscape:window-x="0"
     inkscape:window-y="1"
     inkscape:window-maximized="1"
     inkscape:current-layer="svg4186" />
  <metadata
     id="metadata4191">
    <rdf:RDF>
      <cc:Work
         rdf:about="">
        <dc:format>image/svg+xml</dc:format>
        <dc:type
           rdf:resource="http://purl.org/dc/dcmitype/StillImage" />
        <dc:title></dc:title>
      </cc:Work>
    </rdf:RDF>
  </metadata>
  <g
     id="layer1"
     transform="translate(-253.03 -336.82)">
    <g
       id="g10991"
       transform="translate(14.311,-263.21)">
      <circle
         id="path10959"
         cy="718.43"
         cx="357.12"
         r="118.35"
         fill="#fff" />
      <path
         d="M 118.40039,0 C 100.21118,0.07041401 82.282704,4.3303153 66.005859,12.449219 l 55.605471,28.77539 c 1.49468,0.772937 2.53866,2.203987 2.81836,3.863282 l 7.48633,44.419921 c 2.9093,-0.27091 5.74658,-0.363505 8.48828,-0.259765 24.64801,0.93264 42.22323,16.164823 47.36523,30.548833 6.85581,19.17901 -3.71084,49.94424 -42.06836,63.65624 -38.35752,13.71201 -89.981885,5.17706 -96.837889,-14.00195 -6.457904,-18.06601 22.657167,-57.18594 58.117189,-73.126951 l -0.002,-0.0078 c 1.46504,-0.676023 3.34565,-1.526371 4.75,-2.066406 1.62927,-0.626533 4.19113,-1.417009 5.25,-1.740234 l 0.004,0.0078 c 1.4769,-0.45737 2.93456,-0.853307 4.38086,-1.210937 L 114.32031,49.5 54.861328,18.730469 C 44.494299,25.302632 35.212202,33.446788 27.347656,42.871094 l 0.03906,0.0098 c -2.475063,2.978522 -5.109235,6.465328 -7.033203,9.347657 C 7.1258532,71.766826 0.03692835,94.811442 -0.00390625,118.40625 -0.00395596,183.80163 53.008917,236.81538 118.4043,236.81641 c 34.32567,-0.0275 66.95022,-14.94916 89.41992,-40.89844 -14.27019,-4.88044 -23.48054,-15.81677 -23.49219,-27.89453 -0.001,-16.85627 17.64901,-30.52143 39.42188,-30.52149 3.78466,0.006 7.54855,0.43323 11.17578,1.26953 1.21356,-6.72012 1.84351,-13.53262 1.88281,-20.36132 C 236.81255,53.014014 183.79849,-4.97057e-5 118.40234,0 Z m 8.82031,98.302734 c -1.8794,0.0853 -3.73413,0.330263 -5.55273,0.720704 -1.8186,0.39044 -3.60029,0.925723 -5.33789,1.589842 -1.7376,0.66417 -3.43001,1.45884 -5.06641,2.36524 -1.6363,0.90646 -3.21752,1.92566 -4.73242,3.04296 -1.5149,1.11731 -2.96284,2.33221 -4.33594,3.62891 -1.3732,1.2967 -2.671609,2.67454 -3.88281,4.11914 -1.211101,1.4447 -2.336234,2.95638 -3.365234,4.51758 -1.028901,1.5612 -1.960609,3.17206 -2.78711,4.81836 -0.4923,0.90238 -0.804781,1.90241 -0.925781,2.91211 -0.121,1.0097 -0.0515,2.0294 0.216797,2.9707 0.2684,0.94128 0.736309,1.80485 1.412109,2.50195 0.675801,0.697 1.560809,1.22701 2.66211,1.50391 1.4025,0.64197 2.832455,1.19024 4.285156,1.64844 1.452703,0.45818 2.926713,0.82744 4.416013,1.11328 2.9787,0.57167 6.01735,0.80877 9.06055,0.75976 3.0431,-0.049 6.09154,-0.38485 9.08984,-0.96289 2.9983,-0.57805 5.94672,-1.39856 8.79102,-2.41406 2.2252,-0.84429 4.43609,-2.04379 6.46289,-3.52929 1.0134,-0.74277 1.98106,-1.5574 2.88086,-2.4336 0.8997,-0.87622 1.73316,-1.81484 2.47656,-2.80664 0.7435,-0.99179 1.39701,-2.03745 1.94141,-3.12695 0.5445,-1.0895 0.97855,-2.22328 1.28125,-3.39258 0.3027,-1.1692 0.47388,-2.37242 0.49218,-3.60352 0.0183,-1.2311 -0.11502,-2.48857 -0.42382,-3.76367 -0.3087,-0.98376 -0.71709,-1.9123 -1.20899,-2.7832 -0.492,-0.87092 -1.06824,-1.68425 -1.71484,-2.43945 -0.6466,-0.75519 -1.36402,-1.45325 -2.13672,-2.08985 -0.7727,-0.63658 -1.6005,-1.21136 -2.4707,-1.72656 -1.7405,-1.0302 -3.64822,-1.814697 -5.60743,-2.341798 -1.9593,-0.52709 -3.97042,-0.797848 -5.91992,-0.798828 z"
         transform="translate(238.719,600.02985)"
         id="circle10735"
         inkscape:connector-curvature="0"
         sodipodi:nodetypes="cccccscscccscccccccccccccccsccsccsccccsccccsssccccccsccscccc"
         style="fill:#387ff5;fill-opacity:1" />
      <g
         id="g4233"
         transform="matrix(1,0,0,0.91168616,-921.17716,-67.88015)">
        <g
           id="g4276"
           transform="matrix(0.8630636,0.15139216,-0.15139216,0.8630636,676.82985,-132.09393)"
           style="opacity:1" />
      </g>
      <g
         transform="translate(-921.17716,-147.50876)"
         id="g4261"
         style="fill:#44aa00" />
    </g>
    <g
       id="g4588">
      <rect
         y="452.71964"
         x="405.5563"
         height="42.14539"
         width="8.0276899"
         id="rect4586"
         style="opacity:1;fill:#ffeeaa;fill-opacity:1;stroke:#ffdd55;stroke-width:1;stroke-miterlimit:4;stroke-dasharray:none" />
      <g
         transform="matrix(0.96421658,-0.02120539,0.02572471,1.0173333,6.0315944,-8.4236932)"
         id="g4543">
        <path
           transform="matrix(0.8630636,0.13802214,-0.15139216,0.78684314,657.8564,296.76862)"
           id="path4267"
           d="m -196.59375,253.39844 c 0,-0.2878 -3.28574,-5.27949 -4.38867,-6.87696 -7.21248,0.42444 -18.85893,1.66653 -31.19727,2.80274 -6.16917,0.5681 -12.51149,1.11021 -18.55859,1.50976 -6.0471,0.39956 -11.79778,0.65821 -16.78711,0.65821 -0.8945,0 -1.57002,-0.0516 -2.16211,-0.18946 -0.59209,-0.13789 -1.10238,-0.36287 -1.66602,-0.71093 -1.12727,-0.69612 -2.46979,-1.8851 -5.12695,-3.85547 -2.45274,-1.8188 -4.73234,-3.62828 -6.94336,-4.98242 -1.10551,-0.67707 -2.19387,-1.24064 -3.27929,-1.63477 -1.08543,-0.39413 -2.16753,-0.61719 -3.25977,-0.61719 -18.64433,0 -9.14976,-0.0117 -36.25195,-0.0117 -0.24139,0.27862 -1.22778,0.84731 -2.19336,1.26563 -2.3065,0.99896 -2.84997,1.62245 -3.00196,3.43945 -0.15273,1.82558 0.63722,3.09352 2.57422,4.13477 l 1.30469,0.70117 17.70313,0 17.70117,0 2.16601,0.75977 c 2.61297,0.91534 6.03582,2.78953 9.39258,5.14453 3.77428,2.6477 7.37403,4.16227 11.99609,5.04687 2.349,0.4497 12.70495,0.51496 20.04297,0.12696 6.77272,-0.35801 33.19905,-2.65524 43.74414,-3.80274 5.94565,-0.6469 8.19141,-1.4445 8.19141,-2.9082 z"
           style="opacity:1;fill:#7c916f"
           inkscape:connector-curvature="0" />
        <path
           id="path4235"
           d="m -263.30469,176.03711 c -6.70635,0.0285 -13.51457,0.21067 -16.11914,0.53125 -10.66108,1.31223 -19.30318,4.24605 -25.98047,8.82031 -5.44654,3.73102 -10.99612,9.44141 -14.34375,14.75781 -4.53624,7.2042 -5.55005,12.15965 -5.84375,28.56446 -0.15278,8.5336 -0.25844,10.35824 -0.62304,10.77929 27.10219,0 17.60762,0.0117 36.25195,0.0117 1.09224,0 2.17434,0.22306 3.25977,0.61719 1.08542,0.39413 2.17378,0.9577 3.27929,1.63477 2.21102,1.35414 4.49062,3.16362 6.94336,4.98242 2.65716,1.97037 3.99968,3.15935 5.12695,3.85547 0.56364,0.34806 1.07393,0.57304 1.66602,0.71093 0.59209,0.1379 1.26761,0.18946 2.16211,0.18946 4.98933,0 10.74001,-0.25865 16.78711,-0.65821 6.0471,-0.39955 12.38942,-0.94166 18.55859,-1.50976 12.33834,-1.13621 23.98479,-2.3783 31.19727,-2.80274 1.10293,1.59747 4.38867,6.58916 4.38867,6.87696 0,-0.2878 -0.90098,-1.83028 -2.00391,-3.42774 -2.93248,-4.24684 -9.55075,-15.31194 -10.11718,-16.91601 -0.77577,-2.19718 -1.07725,-5.36083 -0.87305,-9.14453 0.58034,-10.75523 -2.1981,-20.68634 -8.21094,-29.34766 -7.57004,-10.90426 -16.46095,-16.27616 -29.99805,-18.12695 -2.19572,-0.30019 -8.80145,-0.42692 -15.50781,-0.39844 z"
           style="opacity:1;fill:#5d6c53"
           inkscape:connector-curvature="0"
           transform="matrix(0.8630636,0.13802214,-0.15139216,0.78684314,657.8564,296.76862)" />
        <ellipse
           style="opacity:1;fill:#000000;fill-opacity:1;stroke:none;stroke-width:1.14123785;stroke-miterlimit:4;stroke-dasharray:none"
           id="path4280"
           cx="272.45773"
           cy="1262.5668"
           transform="matrix(0.82697021,-0.26410377,0.28968716,0.75393729,-230.03631,-451.51836)"
           rx="7.5868726"
           ry="3.4355648" />
        <path
           style="opacity:1;fill:#ffffff;fill-opacity:1;stroke:none;stroke-width:1;stroke-miterlimit:4;stroke-dasharray:none"
           d="m 366.4857,428.4555 -7.84969,-26.16497 c -0.63829,-1.55351 -1.969,-2.71715 -3.59375,-3.14258 -85.60348,-22.45362 -101.50887,-15.17786 -5.29297,9.66992 l 6.29867,22.60104 c 0,0 0.68592,0.23953 1.59684,0.24816 0.46442,0.004 1.05962,-0.0109 1.59733,-0.067 1.15583,-0.12072 2.56586,-0.45822 3.37785,-0.80439 0.82972,-0.35372 2.2612,-0.91639 3.1364,-1.62375 0.63448,-0.5128 0.72932,-0.7164 0.72932,-0.7164 z"
           id="path4530"
           inkscape:connector-curvature="0"
           sodipodi:nodetypes="cccccsssscc" />
      </g>
    </g>
    <g
       id="g4667" />
    <g
       id="g4697"
       transform="matrix(0.9920239,0.1260499,-0.1260499,0.9920239,-205.33621,-201.22283)">
      <g
         id="g4630"
         transform="matrix(0.73440713,-0.6787092,0.6787092,0.73440713,404.47014,413.6297)">
        <path
           transform="translate(253.03,336.81985)"
           id="path4628"
           d="m -259.01953,-22.283203 17.37695,-0.201172 c 2.22352,-0.0258 4.17962,-1.750422 4.05664,-3.970703 l -0.14844,-2.683594 c -0.12297,-2.220261 -1.74772,-4.00104 -3.9707,-4.05664 l -17.31445,-0.433594 0,1.570312 a 4.3901495,4.3901495 0 0 1 0.10547,0.05078 4.3901495,4.3901495 0 0 1 0.38086,0.21875 4.3901495,4.3901495 0 0 1 0.35742,0.253906 4.3901495,4.3901495 0 0 1 0.33008,0.291015 4.3901495,4.3901495 0 0 1 0.29882,0.320313 4.3901495,4.3901495 0 0 1 0.26758,0.347656 4.3901495,4.3901495 0 0 1 0.22852,0.375 4.3901495,4.3901495 0 0 1 0.1914,0.394531 4.3901495,4.3901495 0 0 1 0.15235,0.41211 4.3901495,4.3901495 0 0 1 0.10742,0.423828 4.3901495,4.3901495 0 0 1 0.0664,0.435547 4.3901495,4.3901495 0 0 1 0.0234,0.4375 4.3901495,4.3901495 0 0 1 -0.002,0.11914 4.3901495,4.3901495 0 0 1 -0.0352,0.4375 4.3901495,4.3901495 0 0 1 -0.0762,0.431641 4.3901495,4.3901495 0 0 1 -0.12109,0.421875 4.3901495,4.3901495 0 0 1 -0.16211,0.408203 4.3901495,4.3901495 0 0 1 -0.20117,0.390625 4.3901495,4.3901495 0 0 1 -0.24024,0.367188 4.3901495,4.3901495 0 0 1 -0.27539,0.341796 4.3901495,4.3901495 0 0 1 -0.30859,0.3125 4.3901495,4.3901495 0 0 1 -0.33789,0.279297 4.3901495,4.3901495 0 0 1 -0.36328,0.246094 4.3901495,4.3901495 0 0 1 -0.38672,0.207031 l 0,1.851563 z"
           style="opacity:1;fill:#502d16;fill-opacity:1;stroke:none;stroke-width:1;stroke-miterlimit:4;stroke-dasharray:none"
           inkscape:connector-curvature="0" />
        <path
           transform="translate(253.03,336.81985)"
           id="path4626"
           d="m -262.88672,-33.724609 -22.28125,-0.558594 c -2.22298,-0.05565 -4.03275,1.747162 -4.05664,3.970703 l -0.0469,4.277344 c -0.0239,2.223541 1.74719,4.08244 3.9707,4.05664 l 22.39453,-0.259765 0,-1.957031 a 4.3901495,4.3901495 0 0 1 -0.36328,-0.208985 4.3901495,4.3901495 0 0 1 -0.35742,-0.255859 4.3901495,4.3901495 0 0 1 -0.33008,-0.289063 4.3901495,4.3901495 0 0 1 -0.30078,-0.320312 4.3901495,4.3901495 0 0 1 -0.26563,-0.34961 4.3901495,4.3901495 0 0 1 -0.22851,-0.375 4.3901495,4.3901495 0 0 1 -0.19141,-0.394531 4.3901495,4.3901495 0 0 1 -0.15039,-0.412109 4.3901495,4.3901495 0 0 1 -0.10937,-0.423828 4.3901495,4.3901495 0 0 1 -0.0664,-0.435547 4.3901495,4.3901495 0 0 1 -0.0215,-0.4375 4.3901495,4.3901495 0 0 1 0.0195,-0.419922 4.3901495,4.3901495 0 0 1 0.0645,-0.433594 4.3901495,4.3901495 0 0 1 0.10742,-0.425781 4.3901495,4.3901495 0 0 1 0.14844,-0.412109 4.3901495,4.3901495 0 0 1 0.18945,-0.396485 4.3901495,4.3901495 0 0 1 0.22852,-0.375 4.3901495,4.3901495 0 0 1 0.26367,-0.349609 4.3901495,4.3901495 0 0 1 0.29883,-0.322266 4.3901495,4.3901495 0 0 1 0.32812,-0.291016 4.3901495,4.3901495 0 0 1 0.35547,-0.257812 4.3901495,4.3901495 0 0 1 0.38086,-0.21875 l 0,-1.677734 c 0,-0.01836 0.019,-0.02864 0.0195,-0.04687 z"
           style="opacity:1;fill:#502d16;fill-opacity:1;stroke:none;stroke-width:1;stroke-miterlimit:4;stroke-dasharray:none"
           inkscape:connector-curvature="0" />
        <path
           transform="translate(253.03,336.81985)"
           id="rect4598"
           d="m -262.88672,-33.724609 c -5e-4,0.01823 -0.0195,0.02852 -0.0195,0.04687 l 0,1.677734 a 4.3901495,4.3901495 0 0 0 -0.38086,0.21875 4.3901495,4.3901495 0 0 0 -0.35547,0.257812 4.3901495,4.3901495 0 0 0 -0.32812,0.291016 4.3901495,4.3901495 0 0 0 -0.29883,0.322266 4.3901495,4.3901495 0 0 0 -0.26367,0.349609 4.3901495,4.3901495 0 0 0 -0.22852,0.375 4.3901495,4.3901495 0 0 0 -0.18945,0.396485 4.3901495,4.3901495 0 0 0 -0.14844,0.412109 4.3901495,4.3901495 0 0 0 -0.10742,0.425781 4.3901495,4.3901495 0 0 0 -0.0645,0.433594 4.3901495,4.3901495 0 0 0 -0.0195,0.419922 4.3901495,4.3901495 0 0 0 0.0215,0.4375 4.3901495,4.3901495 0 0 0 0.0664,0.435547 4.3901495,4.3901495 0 0 0 0.10937,0.423828 4.3901495,4.3901495 0 0 0 0.15039,0.412109 4.3901495,4.3901495 0 0 0 0.19141,0.394531 4.3901495,4.3901495 0 0 0 0.22851,0.375 4.3901495,4.3901495 0 0 0 0.26563,0.34961 4.3901495,4.3901495 0 0 0 0.30078,0.320312 4.3901495,4.3901495 0 0 0 0.33008,0.289063 4.3901495,4.3901495 0 0 0 0.35742,0.255859 4.3901495,4.3901495 0 0 0 0.36328,0.208985 l 0,1.957031 3.88672,-0.04492 0,-1.851563 a 4.3901495,4.3901495 0 0 0 0.38672,-0.207031 4.3901495,4.3901495 0 0 0 0.36328,-0.246094 4.3901495,4.3901495 0 0 0 0.33789,-0.279297 4.3901495,4.3901495 0 0 0 0.30859,-0.3125 4.3901495,4.3901495 0 0 0 0.27539,-0.341796 4.3901495,4.3901495 0 0 0 0.24024,-0.367188 4.3901495,4.3901495 0 0 0 0.20117,-0.390625 4.3901495,4.3901495 0 0 0 0.16211,-0.408203 4.3901495,4.3901495 0 0 0 0.12109,-0.421875 4.3901495,4.3901495 0 0 0 0.0762,-0.431641 4.3901495,4.3901495 0 0 0 0.0352,-0.4375 4.3901495,4.3901495 0 0 0 0.002,-0.11914 4.3901495,4.3901495 0 0 0 -0.0234,-0.4375 4.3901495,4.3901495 0 0 0 -0.0664,-0.435547 4.3901495,4.3901495 0 0 0 -0.10742,-0.423828 4.3901495,4.3901495 0 0 0 -0.15235,-0.41211 4.3901495,4.3901495 0 0 0 -0.1914,-0.394531 4.3901495,4.3901495 0 0 0 -0.22852,-0.375 4.3901495,4.3901495 0 0 0 -0.26758,-0.347656 4.3901495,4.3901495 0 0 0 -0.29882,-0.320313 4.3901495,4.3901495 0 0 0 -0.33008,-0.291015 4.3901495,4.3901495 0 0 0 -0.35742,-0.253906 4.3901495,4.3901495 0 0 0 -0.38086,-0.21875 4.3901495,4.3901495 0 0 0 -0.10547,-0.05078 l 0,-1.570312 -3.86719,-0.0957 z"
           style="opacity:1;fill:#fff6d5;fill-opacity:1;stroke:none;stroke-width:1;stroke-miterlimit:4;stroke-dasharray:none"
           inkscape:connector-curvature="0" />
      </g>
      <path
         style="fill:url(#linearGradient4690);fill-opacity:1;fill-rule:evenodd;stroke:none;stroke-width:0.9999994;stroke-linecap:butt;stroke-linejoin:miter;stroke-miterlimit:4;stroke-dasharray:none;stroke-opacity:1"
         d="m 334.17383,319.92578 -1.00195,0.88086 c -1.67035,1.46789 -1.7748,4.02072 -0.28321,5.66992 l 2.86719,3.17383 c 1.49159,1.64921 4.05447,1.81127 5.66992,0.2832 l 0.76563,-0.72461 c -0.67305,-1.43812 -3.71114,-7.52223 -8.01758,-9.2832 z"
         transform="translate(253.03,336.81985)"
         id="path4655"
         inkscape:connector-curvature="0" />
      <g
         id="g4658"
         transform="matrix(0.73440713,-0.6787092,0.6787092,0.73440713,404.47014,413.6297)">
        <path
           id="path4660"
           d="m -259.01953,-22.283203 17.37695,-0.201172 c 2.22352,-0.0258 3.26974,-1.159196 4.19417,-2.498436 0.72096,-1.044473 0.90086,-2.502943 0.66206,-3.749412 -0.25504,-1.331213 -1.08465,-2.605212 -2.13701,-3.459444 -0.76534,-0.621249 -1.75033,-0.977849 -2.78172,-1.003645 l -17.31445,-0.433594 0,1.570312 c 0.0354,0.01646 0.0705,0.03339 0.10547,0.05078 0.13052,0.06652 0.25764,0.139525 0.38086,0.21875 0.12329,0.07863 0.24258,0.163371 0.35742,0.253906 0.11482,0.09143 0.22499,0.188553 0.33008,0.291015 0.10487,0.101732 0.20461,0.208636 0.29882,0.320313 0.0949,0.111354 0.18424,0.227384 0.26758,0.347656 0.0824,0.12111 0.15865,0.246266 0.22852,0.375 0.0703,0.12824 0.13421,0.259914 0.1914,0.394531 0.0576,0.134741 0.10848,0.272283 0.15235,0.41211 0.0428,0.139404 0.0787,0.280856 0.10742,0.423828 0.0294,0.14398 0.0516,0.289345 0.0664,0.435547 0.0151,0.145353 0.0229,0.291368 0.0234,0.4375 -1.3e-4,0.03972 -7.9e-4,0.07944 -0.002,0.11914 -0.004,0.146329 -0.0162,0.292345 -0.0352,0.4375 -0.0182,0.145059 -0.0436,0.289119 -0.0762,0.431641 -0.0333,0.142556 -0.0737,0.283357 -0.12109,0.421875 -0.0472,0.138687 -0.1013,0.274925 -0.16211,0.408203 -0.0605,0.133484 -0.12764,0.263856 -0.20117,0.390625 -0.0739,0.126324 -0.15409,0.248873 -0.24024,0.367188 -0.086,0.118453 -0.17795,0.232527 -0.27539,0.341796 -0.0976,0.10925 -0.20058,0.213547 -0.30859,0.3125 -0.10791,0.09867 -0.22068,0.191883 -0.33789,0.279297 -0.11692,0.08804 -0.23816,0.170169 -0.36328,0.246094 -0.12538,0.07541 -0.25444,0.144508 -0.38672,0.207031 l 0,1.851563 z"
           style="opacity:1;fill:#502d16;fill-opacity:1;stroke:none;stroke-width:1;stroke-miterlimit:4;stroke-dasharray:none"
           inkscape:connector-curvature="0"
           transform="translate(253.03,336.81985)"
           sodipodi:nodetypes="ccaaaccccccccccccccccccccccccccccc" />
        <path
           transform="translate(253.03,336.81985)"
           id="path4664"
           d="m -262.88672,-33.724609 c -5e-4,0.01823 -0.0195,0.02852 -0.0195,0.04687 l 0,1.677734 a 4.3901495,4.3901495 0 0 0 -0.38086,0.21875 4.3901495,4.3901495 0 0 0 -0.35547,0.257812 4.3901495,4.3901495 0 0 0 -0.32812,0.291016 4.3901495,4.3901495 0 0 0 -0.29883,0.322266 4.3901495,4.3901495 0 0 0 -0.26367,0.349609 4.3901495,4.3901495 0 0 0 -0.22852,0.375 4.3901495,4.3901495 0 0 0 -0.18945,0.396485 4.3901495,4.3901495 0 0 0 -0.14844,0.412109 4.3901495,4.3901495 0 0 0 -0.10742,0.425781 4.3901495,4.3901495 0 0 0 -0.0645,0.433594 4.3901495,4.3901495 0 0 0 -0.0195,0.419922 4.3901495,4.3901495 0 0 0 0.0215,0.4375 4.3901495,4.3901495 0 0 0 0.0664,0.435547 4.3901495,4.3901495 0 0 0 0.10937,0.423828 4.3901495,4.3901495 0 0 0 0.15039,0.412109 4.3901495,4.3901495 0 0 0 0.19141,0.394531 4.3901495,4.3901495 0 0 0 0.22851,0.375 4.3901495,4.3901495 0 0 0 0.26563,0.34961 4.3901495,4.3901495 0 0 0 0.30078,0.320312 4.3901495,4.3901495 0 0 0 0.33008,0.289063 4.3901495,4.3901495 0 0 0 0.35742,0.255859 4.3901495,4.3901495 0 0 0 0.36328,0.208985 l 0,1.957031 3.88672,-0.04492 0,-1.851563 a 4.3901495,4.3901495 0 0 0 0.38672,-0.207031 4.3901495,4.3901495 0 0 0 0.36328,-0.246094 4.3901495,4.3901495 0 0 0 0.33789,-0.279297 4.3901495,4.3901495 0 0 0 0.30859,-0.3125 4.3901495,4.3901495 0 0 0 0.27539,-0.341796 4.3901495,4.3901495 0 0 0 0.24024,-0.367188 4.3901495,4.3901495 0 0 0 0.20117,-0.390625 4.3901495,4.3901495 0 0 0 0.16211,-0.408203 4.3901495,4.3901495 0 0 0 0.12109,-0.421875 4.3901495,4.3901495 0 0 0 0.0762,-0.431641 4.3901495,4.3901495 0 0 0 0.0352,-0.4375 4.3901495,4.3901495 0 0 0 0.002,-0.11914 4.3901495,4.3901495 0 0 0 -0.0234,-0.4375 4.3901495,4.3901495 0 0 0 -0.0664,-0.435547 4.3901495,4.3901495 0 0 0 -0.10742,-0.423828 4.3901495,4.3901495 0 0 0 -0.15235,-0.41211 4.3901495,4.3901495 0 0 0 -0.1914,-0.394531 4.3901495,4.3901495 0 0 0 -0.22852,-0.375 4.3901495,4.3901495 0 0 0 -0.26758,-0.347656 4.3901495,4.3901495 0 0 0 -0.29882,-0.320313 4.3901495,4.3901495 0 0 0 -0.33008,-0.291015 4.3901495,4.3901495 0 0 0 -0.35742,-0.253906 4.3901495,4.3901495 0 0 0 -0.38086,-0.21875 4.3901495,4.3901495 0 0 0 -0.10547,-0.05078 l 0,-1.570312 -3.86719,-0.0957 z"
           style="opacity:1;fill:#fff6d5;fill-opacity:1;stroke:none;stroke-width:1;stroke-miterlimit:4;stroke-dasharray:none"
           inkscape:connector-curvature="0" />
      </g>
    </g>
    <g
       transform="translate(14.311,-263.21)"
       id="g4771">
      <circle
         fill="#fff"
         r="118.35"
         cx="357.12"
         cy="718.43"
         id="circle4773" />
      <path
         style="fill:#37483e;fill-opacity:1"
         sodipodi:nodetypes="cccccscscccscccccccccccccccsccsccsccccsccccsssccccccsccscccc"
         inkscape:connector-curvature="0"
         id="path4775"
         transform="translate(238.719,600.02985)"
         d="M 118.40039,0 C 100.21118,0.07041401 82.282704,4.3303153 66.005859,12.449219 l 55.605471,28.77539 c 1.49468,0.772937 2.53866,2.203987 2.81836,3.863282 l 7.48633,44.419921 c 2.9093,-0.27091 5.74658,-0.363505 8.48828,-0.259765 24.64801,0.93264 42.22323,16.164823 47.36523,30.548833 6.85581,19.17901 -3.71084,49.94424 -42.06836,63.65624 -38.35752,13.71201 -89.981885,5.17706 -96.837889,-14.00195 -6.457904,-18.06601 22.657167,-57.18594 58.117189,-73.126951 l -0.002,-0.0078 c 1.46504,-0.676023 3.34565,-1.526371 4.75,-2.066406 1.62927,-0.626533 4.19113,-1.417009 5.25,-1.740234 l 0.004,0.0078 c 1.4769,-0.45737 2.93456,-0.853307 4.38086,-1.210937 L 114.32031,49.5 54.861328,18.730469 C 44.494299,25.302632 35.212202,33.446788 27.347656,42.871094 l 0.03906,0.0098 c -2.475063,2.978522 -5.109235,6.465328 -7.033203,9.347657 C 7.1258532,71.766826 0.03692835,94.811442 -0.00390625,118.40625 -0.00395596,183.80163 53.008917,236.81538 118.4043,236.81641 c 34.32567,-0.0275 66.95022,-14.94916 89.41992,-40.89844 -14.27019,-4.88044 -23.48054,-15.81677 -23.49219,-27.89453 -0.001,-16.85627 17.64901,-30.52143 39.42188,-30.52149 3.78466,0.006 7.54855,0.43323 11.17578,1.26953 1.21356,-6.72012 1.84351,-13.53262 1.88281,-20.36132 C 236.81255,53.014014 183.79849,-4.97057e-5 118.40234,0 Z m 8.82031,98.302734 c -1.8794,0.0853 -3.73413,0.330263 -5.55273,0.720704 -1.8186,0.39044 -3.60029,0.925723 -5.33789,1.589842 -1.7376,0.66417 -3.43001,1.45884 -5.06641,2.36524 -1.6363,0.90646 -3.21752,1.92566 -4.73242,3.04296 -1.5149,1.11731 -2.96284,2.33221 -4.33594,3.62891 -1.3732,1.2967 -2.671609,2.67454 -3.88281,4.11914 -1.211101,1.4447 -2.336234,2.95638 -3.365234,4.51758 -1.028901,1.5612 -1.960609,3.17206 -2.78711,4.81836 -0.4923,0.90238 -0.804781,1.90241 -0.925781,2.91211 -0.121,1.0097 -0.0515,2.0294 0.216797,2.9707 0.2684,0.94128 0.736309,1.80485 1.412109,2.50195 0.675801,0.697 1.560809,1.22701 2.66211,1.50391 1.4025,0.64197 2.832455,1.19024 4.285156,1.64844 1.452703,0.45818 2.926713,0.82744 4.416013,1.11328 2.9787,0.57167 6.01735,0.80877 9.06055,0.75976 3.0431,-0.049 6.09154,-0.38485 9.08984,-0.96289 2.9983,-0.57805 5.94672,-1.39856 8.79102,-2.41406 2.2252,-0.84429 4.43609,-2.04379 6.46289,-3.52929 1.0134,-0.74277 1.98106,-1.5574 2.88086,-2.4336 0.8997,-0.87622 1.73316,-1.81484 2.47656,-2.80664 0.7435,-0.99179 1.39701,-2.03745 1.94141,-3.12695 0.5445,-1.0895 0.97855,-2.22328 1.28125,-3.39258 0.3027,-1.1692 0.47388,-2.37242 0.49218,-3.60352 0.0183,-1.2311 -0.11502,-2.48857 -0.42382,-3.76367 -0.3087,-0.98376 -0.71709,-1.9123 -1.20899,-2.7832 -0.492,-0.87092 -1.06824,-1.68425 -1.71484,-2.43945 -0.6466,-0.75519 -1.36402,-1.45325 -2.13672,-2.08985 -0.7727,-0.63658 -1.6005,-1.21136 -2.4707,-1.72656 -1.7405,-1.0302 -3.64822,-1.814697 -5.60743,-2.341798 -1.9593,-0.52709 -3.97042,-0.797848 -5.91992,-0.798828 z" />
      <g
         transform="matrix(1,0,0,0.91168616,-921.17716,-67.88015)"
         id="g4777">
        <g
           style="opacity:1"
           transform="matrix(0.8630636,0.15139216,-0.15139216,0.8630636,676.82985,-132.09393)"
           id="g4779" />
      </g>
      <g
         style="fill:#44aa00"
         id="g4781"
         transform="translate(-921.17716,-147.50876)" />
    </g>
    <g
       id="g4783"
       transform="translate(-1.9999988,1.9999988)">
      <rect
         style="opacity:1;fill:#aa8800;fill-opacity:1;stroke:#806600;stroke-width:1;stroke-miterlimit:4;stroke-dasharray:none"
         id="rect4785"
         width="8.0276899"
         height="42.14539"
         x="405.5563"
         y="452.71964" />
      <g
         id="g4787"
         transform="matrix(0.96421658,-0.02120539,0.02572471,1.0173333,6.0315944,-8.4236932)">
        <path
           inkscape:connector-curvature="0"
           style="opacity:1;fill:#7c916f"
           d="m -196.59375,253.39844 c 0,-0.2878 -3.28574,-5.27949 -4.38867,-6.87696 -7.21248,0.42444 -18.85893,1.66653 -31.19727,2.80274 -6.16917,0.5681 -12.51149,1.11021 -18.55859,1.50976 -6.0471,0.39956 -11.79778,0.65821 -16.78711,0.65821 -0.8945,0 -1.57002,-0.0516 -2.16211,-0.18946 -0.59209,-0.13789 -1.10238,-0.36287 -1.66602,-0.71093 -1.12727,-0.69612 -2.46979,-1.8851 -5.12695,-3.85547 -2.45274,-1.8188 -4.73234,-3.62828 -6.94336,-4.98242 -1.10551,-0.67707 -2.19387,-1.24064 -3.27929,-1.63477 -1.08543,-0.39413 -2.16753,-0.61719 -3.25977,-0.61719 -18.64433,0 -9.14976,-0.0117 -36.25195,-0.0117 -0.24139,0.27862 -1.22778,0.84731 -2.19336,1.26563 -2.3065,0.99896 -2.84997,1.62245 -3.00196,3.43945 -0.15273,1.82558 0.63722,3.09352 2.57422,4.13477 l 1.30469,0.70117 17.70313,0 17.70117,0 2.16601,0.75977 c 2.61297,0.91534 6.03582,2.78953 9.39258,5.14453 3.77428,2.6477 7.37403,4.16227 11.99609,5.04687 2.349,0.4497 12.70495,0.51496 20.04297,0.12696 6.77272,-0.35801 33.19905,-2.65524 43.74414,-3.80274 5.94565,-0.6469 8.19141,-1.4445 8.19141,-2.9082 z"
           id="path4789"
           transform="matrix(0.8630636,0.13802214,-0.15139216,0.78684314,657.8564,296.76862)" />
        <path
           transform="matrix(0.8630636,0.13802214,-0.15139216,0.78684314,657.8564,296.76862)"
           inkscape:connector-curvature="0"
           style="opacity:1;fill:#5d6c53"
           d="m -263.30469,176.03711 c -6.70635,0.0285 -13.51457,0.21067 -16.11914,0.53125 -10.66108,1.31223 -19.30318,4.24605 -25.98047,8.82031 -5.44654,3.73102 -10.99612,9.44141 -14.34375,14.75781 -4.53624,7.2042 -5.55005,12.15965 -5.84375,28.56446 -0.15278,8.5336 -0.25844,10.35824 -0.62304,10.77929 27.10219,0 17.60762,0.0117 36.25195,0.0117 1.09224,0 2.17434,0.22306 3.25977,0.61719 1.08542,0.39413 2.17378,0.9577 3.27929,1.63477 2.21102,1.35414 4.49062,3.16362 6.94336,4.98242 2.65716,1.97037 3.99968,3.15935 5.12695,3.85547 0.56364,0.34806 1.07393,0.57304 1.66602,0.71093 0.59209,0.1379 1.26761,0.18946 2.16211,0.18946 4.98933,0 10.74001,-0.25865 16.78711,-0.65821 6.0471,-0.39955 12.38942,-0.94166 18.55859,-1.50976 12.33834,-1.13621 23.98479,-2.3783 31.19727,-2.80274 1.10293,1.59747 4.38867,6.58916 4.38867,6.87696 0,-0.2878 -0.90098,-1.83028 -2.00391,-3.42774 -2.93248,-4.24684 -9.55075,-15.31194 -10.11718,-16.91601 -0.77577,-2.19718 -1.07725,-5.36083 -0.87305,-9.14453 0.58034,-10.75523 -2.1981,-20.68634 -8.21094,-29.34766 -7.57004,-10.90426 -16.46095,-16.27616 -29.99805,-18.12695 -2.19572,-0.30019 -8.80145,-0.42692 -15.50781,-0.39844 z"
           id="path4791" />
        <ellipse
           ry="3.4355648"
           rx="7.5868726"
           transform="matrix(0.82697021,-0.26410377,0.28968716,0.75393729,-230.03631,-451.51836)"
           cy="1262.5668"
           cx="272.45773"
           id="ellipse4793"
           style="opacity:1;fill:#000000;fill-opacity:1;stroke:none;stroke-width:1.14123785;stroke-miterlimit:4;stroke-dasharray:none" />
        <path
           sodipodi:nodetypes="cccccccsssscc"
           inkscape:connector-curvature="0"
           id="path4795"
           d="m 366.4857,428.4555 -7.84969,-26.16497 c -0.63829,-1.55351 -1.969,-2.71715 -3.59375,-3.14258 l -73.66119,-19.16503 c -3.02232,2.60977 -6.09633,5.8232 -8.68238,8.87286 l 77.0506,19.96209 6.29867,22.60104 c 0,0 0.68592,0.23953 1.59684,0.24816 0.46442,0.004 1.05962,-0.0109 1.59733,-0.067 1.15583,-0.12072 2.56586,-0.45822 3.37785,-0.80439 0.82972,-0.35372 2.2612,-0.91639 3.1364,-1.62375 0.63448,-0.5128 0.72932,-0.7164 0.72932,-0.7164 z"
           style="opacity:1;fill:#ffffff;fill-opacity:1;stroke:none;stroke-width:1;stroke-miterlimit:4;stroke-dasharray:none" />
      </g>
    </g>
  </g>
  <g
     transform="translate(47.772233,-246.2753)"
     style="stroke-width:0.09999994;stroke-miterlimit:4;stroke-dasharray:none"
     id="g4223" />
  <g
     id="g4299">
    <g
       id="g4295" />
  </g>
  <g
     id="g4364"
     transform="matrix(1.0790293,0,0,1.0790293,194.24667,-33.801376)"
     style="stroke:#37483e;stroke-width:1.99999881;stroke-miterlimit:4;stroke-dasharray:none;stroke-opacity:1"
     inkscape:transform-center-x="-6.378705"
     inkscape:transform-center-y="10.002466">
    <g
       id="g4436">
      <path
         sodipodi:nodetypes="ccscssc"
         inkscape:connector-curvature="0"
         id="path4431"
         d="m -75.337093,187.01735 c -0.550994,0.28222 -3.851943,2.13581 -3.851943,2.13581 0,0 -4.793733,2.12883 -5.923602,2.2775 -11.402714,1.50039 -30.207882,1.44459 -30.207882,1.44459 0,0 11.04077,-0.84326 19.577263,-2.6934 4.899625,-1.06191 10.820859,-2.0428 14.157938,-3.01612 3.247014,-0.94705 3.542283,-1.00993 4.664444,-1.43239"
         style="fill:#37483e;fill-opacity:1;fill-rule:evenodd;stroke:none;stroke-width:0.92675835px;stroke-linecap:butt;stroke-linejoin:miter;stroke-opacity:1" />
      <path
         sodipodi:nodetypes="ccc"
         style="fill:none;fill-rule:evenodd;stroke:#37483e;stroke-width:1.81366611;stroke-linecap:butt;stroke-linejoin:miter;stroke-miterlimit:4;stroke-dasharray:none;stroke-opacity:1"
         d="m -105.1469,185.02323 1.48435,6.37492 3.07814,5.93757"
         id="path4289"
         inkscape:connector-curvature="0" />
      <path
         style="fill:none;fill-rule:evenodd;stroke:#37483e;stroke-width:1.81366611;stroke-linecap:butt;stroke-linejoin:miter;stroke-miterlimit:4;stroke-dasharray:none;stroke-opacity:1"
         d="m -95.709408,179.77323 0.265618,10.51554 2.73438,7.17195"
         id="path4291"
         inkscape:connector-curvature="0"
         sodipodi:nodetypes="ccc" />
      <path
         sodipodi:nodetypes="ccc"
         style="fill:none;fill-rule:evenodd;stroke:#37483e;stroke-width:1.81366611;stroke-linecap:butt;stroke-linejoin:miter;stroke-miterlimit:4;stroke-dasharray:none;stroke-opacity:1"
         d="m -86.584413,178.27323 0.140617,10.82023 2.921881,8.24226"
         id="path4293"
         inkscape:connector-curvature="0" />
      <path
         style="fill:none;fill-rule:evenodd;stroke:#37483e;stroke-width:3.11205459;stroke-linecap:butt;stroke-linejoin:miter;stroke-miterlimit:4;stroke-dasharray:none;stroke-opacity:1"
         d="m -116.94991,193.3807 c 0,0 21.618162,-18.87358 33.234007,-15.20278 5.338602,1.68709 10.52641,9.28203 8.485335,14.49557 -2.138674,5.46283 -10.983861,4.76469 -16.839939,5.11513 -8.407253,0.50311 -21.905383,-2.6838 -24.879403,-4.40792 z"
         id="path4281"
         inkscape:connector-curvature="0"
         sodipodi:nodetypes="caaac" />
    </g>
  </g>
  <g
     transform="matrix(0.99824455,-0.05922672,0.05922672,0.99824455,-651.94875,-421.51963)"
     id="g4797">
    <g
       transform="matrix(0.73440713,-0.6787092,0.6787092,0.73440713,404.47014,413.6297)"
       id="g4799" />
    <g
       id="g4423"
       transform="translate(90.844533,2.6402817)">
      <path
         transform="matrix(0.73440713,-0.6787092,0.6787092,0.73440713,818.89991,489.25881)"
         id="path4801"
         d="m -243.13897,-29.467182 -5.26069,-3.633862 -10.61987,-0.527862 0,1.570312 c 0.0354,0.01646 0.0705,0.03339 0.10547,0.05078 0.13052,0.06652 0.25764,0.139525 0.38086,0.21875 0.12329,0.07863 0.24258,0.163371 0.35742,0.253906 0.11482,0.09143 0.22499,0.188553 0.33008,0.291015 0.10487,0.101732 0.20461,0.208636 0.29882,0.320313 0.0949,0.111354 0.18424,0.227384 0.26758,0.347656 0.0824,0.12111 0.15865,0.246266 0.22852,0.375 0.0703,0.12824 0.13421,0.259914 0.1914,0.394531 0.0576,0.134741 0.10848,0.272283 0.15235,0.41211 0.0428,0.139404 0.0787,0.280856 0.10742,0.423828 0.0294,0.14398 0.0516,0.289345 0.0664,0.435547 0.0151,0.145353 0.0229,0.291368 0.0234,0.4375 -1.3e-4,0.03972 -7.9e-4,0.07944 -0.002,0.11914 -0.004,0.146329 -0.0162,0.292345 -0.0352,0.4375 -0.0182,0.145059 -0.0436,0.289119 -0.0762,0.431641 -0.0333,0.142556 -0.0737,0.283357 -0.12109,0.421875 -0.0472,0.138687 -0.1013,0.274925 -0.16211,0.408203 -0.0605,0.133484 -0.12764,0.263856 -0.20117,0.390625 -0.0739,0.126324 -0.15409,0.248873 -0.24024,0.367188 -0.086,0.118453 -0.17795,0.232527 -0.27539,0.341796 -0.0976,0.10925 -0.20058,0.213547 -0.30859,0.3125 -0.10791,0.09867 -0.22068,0.191883 -0.33789,0.279297 -0.11692,0.08804 -0.23816,0.170169 -0.36328,0.246094 -0.12538,0.07541 -0.25444,0.144508 -0.38672,0.207031 l 0,1.851563 1.6e-4,2e-6 c 5.66829,0.03156 14.83007,-0.103338 20.54268,-0.215843 1.28119,-0.02523 2.15366,-2.317344 2.15366,-2.317344"
         style="opacity:1;fill:#502d16;fill-opacity:1;stroke:none;stroke-width:1;stroke-miterlimit:4;stroke-dasharray:none"
         inkscape:connector-curvature="0"
         sodipodi:nodetypes="cccccccccccccccccccccccccccccccc" />
      <path
         transform="matrix(0.73440713,-0.6787092,0.6787092,0.73440713,818.89991,489.25881)"
         id="path4803"
         d="m -262.88672,-33.724609 -22.28125,-0.558594 c -2.22298,-0.05565 -4.03275,1.747162 -4.05664,3.970703 l -0.0469,4.277344 c -0.0239,2.223541 1.74719,4.08244 3.9707,4.05664 l 22.39453,-0.259765 0,-1.957031 a 4.3901495,4.3901495 0 0 1 -0.36328,-0.208985 4.3901495,4.3901495 0 0 1 -0.35742,-0.255859 4.3901495,4.3901495 0 0 1 -0.33008,-0.289063 4.3901495,4.3901495 0 0 1 -0.30078,-0.320312 4.3901495,4.3901495 0 0 1 -0.26563,-0.34961 4.3901495,4.3901495 0 0 1 -0.22851,-0.375 4.3901495,4.3901495 0 0 1 -0.19141,-0.394531 4.3901495,4.3901495 0 0 1 -0.15039,-0.412109 4.3901495,4.3901495 0 0 1 -0.10937,-0.423828 4.3901495,4.3901495 0 0 1 -0.0664,-0.435547 4.3901495,4.3901495 0 0 1 -0.0215,-0.4375 4.3901495,4.3901495 0 0 1 0.0195,-0.419922 4.3901495,4.3901495 0 0 1 0.0645,-0.433594 4.3901495,4.3901495 0 0 1 0.10742,-0.425781 4.3901495,4.3901495 0 0 1 0.14844,-0.412109 4.3901495,4.3901495 0 0 1 0.18945,-0.396485 4.3901495,4.3901495 0 0 1 0.22852,-0.375 4.3901495,4.3901495 0 0 1 0.26367,-0.349609 4.3901495,4.3901495 0 0 1 0.29883,-0.322266 4.3901495,4.3901495 0 0 1 0.32812,-0.291016 4.3901495,4.3901495 0 0 1 0.35547,-0.257812 4.3901495,4.3901495 0 0 1 0.38086,-0.21875 l 0,-1.677734 c 0,-0.01836 0.019,-0.02864 0.0195,-0.04687 z"
         style="opacity:1;fill:#502d16;fill-opacity:1;stroke:none;stroke-width:1;stroke-miterlimit:4;stroke-dasharray:none"
         inkscape:connector-curvature="0" />
      <path
         transform="matrix(0.73440713,-0.6787092,0.6787092,0.73440713,818.89991,489.25881)"
         id="path4805"
         d="m -262.88672,-33.724609 c -5e-4,0.01823 -0.0195,0.02852 -0.0195,0.04687 l 0,1.677734 a 4.3901495,4.3901495 0 0 0 -0.38086,0.21875 4.3901495,4.3901495 0 0 0 -0.35547,0.257812 4.3901495,4.3901495 0 0 0 -0.32812,0.291016 4.3901495,4.3901495 0 0 0 -0.29883,0.322266 4.3901495,4.3901495 0 0 0 -0.26367,0.349609 4.3901495,4.3901495 0 0 0 -0.22852,0.375 4.3901495,4.3901495 0 0 0 -0.18945,0.396485 4.3901495,4.3901495 0 0 0 -0.14844,0.412109 4.3901495,4.3901495 0 0 0 -0.10742,0.425781 4.3901495,4.3901495 0 0 0 -0.0645,0.433594 4.3901495,4.3901495 0 0 0 -0.0195,0.419922 4.3901495,4.3901495 0 0 0 0.0215,0.4375 4.3901495,4.3901495 0 0 0 0.0664,0.435547 4.3901495,4.3901495 0 0 0 0.10937,0.423828 4.3901495,4.3901495 0 0 0 0.15039,0.412109 4.3901495,4.3901495 0 0 0 0.19141,0.394531 4.3901495,4.3901495 0 0 0 0.22851,0.375 4.3901495,4.3901495 0 0 0 0.26563,0.34961 4.3901495,4.3901495 0 0 0 0.30078,0.320312 4.3901495,4.3901495 0 0 0 0.33008,0.289063 4.3901495,4.3901495 0 0 0 0.35742,0.255859 4.3901495,4.3901495 0 0 0 0.36328,0.208985 l 0,1.957031 3.88672,-0.04492 0,-1.851563 a 4.3901495,4.3901495 0 0 0 0.38672,-0.207031 4.3901495,4.3901495 0 0 0 0.36328,-0.246094 4.3901495,4.3901495 0 0 0 0.33789,-0.279297 4.3901495,4.3901495 0 0 0 0.30859,-0.3125 4.3901495,4.3901495 0 0 0 0.27539,-0.341796 4.3901495,4.3901495 0 0 0 0.24024,-0.367188 4.3901495,4.3901495 0 0 0 0.20117,-0.390625 4.3901495,4.3901495 0 0 0 0.16211,-0.408203 4.3901495,4.3901495 0 0 0 0.12109,-0.421875 4.3901495,4.3901495 0 0 0 0.0762,-0.431641 4.3901495,4.3901495 0 0 0 0.0352,-0.4375 4.3901495,4.3901495 0 0 0 0.002,-0.11914 4.3901495,4.3901495 0 0 0 -0.0234,-0.4375 4.3901495,4.3901495 0 0 0 -0.0664,-0.435547 4.3901495,4.3901495 0 0 0 -0.10742,-0.423828 4.3901495,4.3901495 0 0 0 -0.15235,-0.41211 4.3901495,4.3901495 0 0 0 -0.1914,-0.394531 4.3901495,4.3901495 0 0 0 -0.22852,-0.375 4.3901495,4.3901495 0 0 0 -0.26758,-0.347656 4.3901495,4.3901495 0 0 0 -0.29882,-0.320313 4.3901495,4.3901495 0 0 0 -0.33008,-0.291015 4.3901495,4.3901495 0 0 0 -0.35742,-0.253906 4.3901495,4.3901495 0 0 0 -0.38086,-0.21875 4.3901495,4.3901495 0 0 0 -0.10547,-0.05078 l 0,-1.570312 -3.86719,-0.0957 z"
         style="opacity:1;fill:#fff6d5;fill-opacity:1;stroke:none;stroke-width:1;stroke-miterlimit:4;stroke-dasharray:none"
         inkscape:connector-curvature="0" />
      <path
         style="fill:url(#linearGradient4418);fill-opacity:1;fill-rule:evenodd;stroke:none;stroke-width:0.9999994;stroke-linecap:butt;stroke-linejoin:miter;stroke-miterlimit:4;stroke-dasharray:none;stroke-opacity:1"
         d="m 334.17383,319.92578 -1.00195,0.88086 c -1.67035,1.46789 -1.7748,4.02072 -0.28321,5.66992 l 2.86719,3.17383 c 1.49159,1.64921 4.05447,1.81127 5.66992,0.2832 l 0.76563,-0.72461 c -0.67305,-1.43812 -3.71114,-7.52223 -8.01758,-9.2832 z"
         transform="translate(253.03,336.81985)"
         id="path4807"
         inkscape:connector-curvature="0" />
    </g>
  </g>
</svg>
