<?xml version="1.0" encoding="UTF-8" standalone="no"?>
<svg
   xmlns:dc="http://purl.org/dc/elements/1.1/"
   xmlns:cc="http://creativecommons.org/ns#"
   xmlns:rdf="http://www.w3.org/1999/02/22-rdf-syntax-ns#"
   xmlns:svg="http://www.w3.org/2000/svg"
   xmlns="http://www.w3.org/2000/svg"
   xmlns:sodipodi="http://sodipodi.sourceforge.net/DTD/sodipodi-0.dtd"
   xmlns:inkscape="http://www.inkscape.org/namespaces/inkscape"
   width="500"
   height="500"
   version="1.1"
   viewBox="0 0 500.00001 500.00001"
   id="svg2"
   inkscape:version="0.48.5 r10040"
   sodipodi:docname="hexagon-2307348.svg">
  <metadata
     id="metadata24">
    <rdf:RDF>
      <cc:Work
         rdf:about="">
        <dc:format>image/svg+xml</dc:format>
        <dc:type
           rdf:resource="http://purl.org/dc/dcmitype/StillImage" />
      </cc:Work>
    </rdf:RDF>
  </metadata>
  <defs
     id="defs22" />
  <sodipodi:namedview
     pagecolor="#000000"
     bordercolor="#666666"
     borderopacity="1"
     objecttolerance="10"
     gridtolerance="10"
     guidetolerance="10"
     inkscape:pageopacity="1"
     inkscape:pageshadow="2"
     inkscape:window-width="1916"
     inkscape:window-height="1032"
     id="namedview20"
     showgrid="false"
     inkscape:zoom="1.3350176"
     inkscape:cx="119.62435"
     inkscape:cy="310.12918"
     inkscape:window-x="0"
     inkscape:window-y="22"
     inkscape:window-maximized="0"
     inkscape:current-layer="g4" />
  <g
     transform="translate(0 -552.36)"
     id="g4">
    <g
       transform="matrix(.85362 0 0 .85362 36.596 117.45)"
       fill="#555"
       id="g8"
       style="fill:#ffffff;fill-opacity:1">
      <path
         transform="translate(0 552.36)"
         d="m325.53 95.428c-5.4853-0.07585-11.385 1.3738-17.395 3.9414-10.684 4.5647-22.262 12.749-34.439 23.869-11.437 10.444-23.382 23.529-35.287 38.688-15.423-11.56-30.347-21.108-44.098-28.236-14.641-7.5897-27.944-12.499-39.445-14.143-11.501-1.6439-21.744 0.0386-28.51 6.8047-6.7662 6.7662-8.4486 17.008-6.8047 28.51 1.2155 8.5043 4.2279 17.998 8.7773 28.285 2.5072-2.2151 5.5678-3.8154 8.9551-4.5176-4.1558-9.5151-6.8184-18.076-7.834-25.182-1.3965-9.7704 0.22447-16.271 3.9785-20.025 2.8155-2.8155 7.1749-4.4287 13.301-4.4707 2.042-0.014 4.28 0.14502 6.7227 0.49414 9.7704 1.3965 22.268 5.8707 36.258 13.123 13.118 6.8004 27.569 16.044 42.6 27.305-6.9988 9.3485-13.947 19.395-20.74 30.037-18.428 5.8287-35.595 12.374-51.057 19.352-1.8252-2.6608-3.5788-5.2944-5.2617-7.8984-2.336 2.4096-5.2788 4.2199-8.5781 5.1836 1.4915 2.3169 3.0308 4.6513 4.6289 7.0058-11.035 5.3422-21.061 10.89-29.871 16.523-13.893 8.8843-24.794 17.951-31.969 27.09-7.1744 9.1386-10.842 18.849-8.3652 28.092 2.4766 9.2428 10.509 15.821 21.291 20.148 10.782 4.3271 24.757 6.7272 41.23 7.4746 3.5785 0.16236 7.2962 0.22961 11.102 0.23242-0.9823 3.6768-1.879 7.2862-2.6484 10.785-3.5418 16.106-4.8401 30.227-3.4512 41.762s5.6644 20.995 13.951 25.779c8.2868 4.7844 18.617 3.7561 29.301-0.80859 3.986-1.703 8.0965-3.9109 12.316-6.5859-2.6356-2.1167-4.7075-4.8979-5.9726-8.084-3.6196 2.264-7.0621 4.1034-10.271 5.4746-9.0761 3.8777-15.775 3.9983-20.373 1.3438-4.5978-2.6545-7.8416-8.5155-9.0215-18.314-1.1799-9.7989-0.0953-23.03 3.2891-38.42 0.92619-4.2118 2.0376-8.5989 3.2988-13.115 20.332-0.71219 43.258-3.4994 67.58-8.416 7.0172 6.1925 14.011 12.021 20.932 17.463-9.0376 11.501-18.048 21.709-26.748 30.379 2.8434 1.8283 5.1895 4.3642 6.7774 7.3633 9.1551-9.087 18.549-19.71 27.922-31.645 15.423 11.56 30.347 21.108 44.098 28.236 14.641 7.5897 27.942 12.499 39.443 14.143 11.501 1.6439 21.746-0.0386 28.512-6.8047 6.7662-6.7662 8.4486-17.01 6.8047-28.512-1.6439-11.501-6.5529-24.803-14.143-39.443-4.8127-9.2838-10.724-19.102-17.609-29.246 11.035-5.3422 21.063-10.89 29.873-16.523 13.893-8.8842 24.796-17.949 31.971-27.088 7.1744-9.1386 10.838-18.853 8.3613-28.096s-10.505-15.819-21.287-20.146c-1.3386-0.53719-2.7264-1.0451-4.1621-1.5234 8e-3 0.22615 0.0176 0.45172 0.0176 0.67969 6e-5 3.2906-0.83098 6.394-2.2832 9.123 0.93117 0.32289 1.8402 0.65369 2.7031 1 9.1597 3.6758 13.977 8.3289 15.352 13.457 1.3741 5.1281-0.47181 11.567-6.5664 19.33-6.0946 7.7632-16.217 16.35-29.492 24.84-8.8008 5.6278-19.006 11.222-30.316 16.629-6.479-9.0129-13.668-18.227-21.531-27.521 8.8889-18.861 15.965-37.008 21.072-53.707 0.40515-4e-3 0.82607-0.0191 1.2285-0.0215 3.8081-0.023 7.4738 0.0486 11.027 0.18945-0.18726-1.0812-0.30471-2.1859-0.30469-3.3184-4e-5 -2.3392 0.43663-4.576 1.1992-6.6602-3.3278-0.13676-6.759-0.20052-10.277-0.20312 0.98246-3.6773 1.8789-7.2857 2.6484-10.785 3.5418-16.106 4.8381-30.227 3.4492-41.762s-5.6624-20.993-13.949-25.777c-3.6255-2.0932-7.6418-3.0758-11.908-3.1348zm-0.35547 9.9863c2.8388 0.0168 5.2522 0.64724 7.2637 1.8086 4.5978 2.6545 7.8416 8.5155 9.0215 18.314s0.0953 23.026-3.2891 38.416c-0.92619 4.2118-2.0376 8.5989-3.2988 13.115-20.332 0.71215-43.258 3.4994-67.58 8.416-7.0174-6.1926-14.013-12.019-20.934-17.461 11.604-14.767 23.171-27.438 34.082-37.402 11.636-10.626 22.549-18.177 31.625-22.055 5.1053-2.1812 9.4595-3.1739 13.109-3.1524zm-84.916 70.555c4.8944 3.8494 9.8345 7.906 14.799 12.152-6.6893 1.52-13.454 3.1758-20.291 5.0078-2.7888 0.74724-5.5553 1.5138-8.2988 2.2949 4.5603-6.7842 9.1692-13.28 13.791-19.455zm123.86 1.6543c-1.1016 1.7726-1.7461 3.8658-1.7461 6.127-2e-5 1.3448 0.23496 2.6265 0.64844 3.8223 7.5251 0.61613 14.33 1.6333 20.23 3.0234 1.3995-1.9117 2.2325-4.27 2.2324-6.8457 2e-5 -1.047-0.14894-2.0542-0.4043-3.0156-6.308-1.4647-13.333-2.4844-20.961-3.1113zm-223.27 8.6211c-3.6557 0.1197-6.8511 1.8943-8.877 4.6133 0.56896 1.1463 1.1254 2.2858 1.7285 3.4492 2.518 4.8572 5.3441 9.8642 8.4453 14.984 3.6251-0.27599 6.7606-2.1819 8.6719-5.0059-3.0458-5.008-5.802-9.8804-8.2383-14.58-0.60637-1.1697-1.1631-2.3128-1.7305-3.4609zm190.99 0.96289c-4.4828 14.077-10.416 29.285-17.682 45.098-7.0611-7.9844-14.572-15.992-22.518-23.938-5.0054-5.0054-10.035-9.8214-15.068-14.482 19.792-3.6835 38.48-5.8965 55.268-6.6777zm-67.445 9.1035c6.7326 6.0556 13.478 12.429 20.176 19.127 8.8741 8.8741 17.189 17.83 24.918 26.73-5.162 10.597-10.875 21.401-17.15 32.27-3.4005 5.8898-6.8721 11.614-10.383 17.195-6.3004 1.9469-12.727 3.8177-19.297 5.5781-9.1498 2.4517-18.179 4.6004-27.037 6.4785-6.7326-6.0556-13.478-12.429-20.176-19.127-8.8742-8.8742-17.189-17.83-24.918-26.73 5.1624-10.598 10.877-21.402 17.152-32.271 3.4006-5.8901 6.87-11.614 10.381-17.195 6.2996-1.9467 12.728-3.8179 19.297-5.5781 9.1503-2.4518 18.178-4.5985 27.037-6.4766zm-61.01 16.828c-1.4651 2.4486-2.9212 4.9208-4.3652 7.4219-5.6187 9.7318-10.802 19.411-15.557 28.951-6.1424-7.4046-11.843-14.735-17.061-21.914 11.419-5.0824 23.813-9.9478 36.982-14.459zm-46.248 18.734c6.4784 9.0121 13.669 18.226 21.531 27.52-8.8891 18.861-15.963 37.008-21.07 53.707-4.6892 0.0494-9.2152-0.0116-13.523-0.20703-15.742-0.71422-28.801-3.0898-37.961-6.7656-9.1597-3.6758-13.979-8.3289-15.354-13.457-1.3741-5.1281 0.47375-11.567 6.5684-19.33 6.0946-7.7632 16.217-16.348 29.492-24.838 8.8011-5.628 19.005-11.221 30.316-16.629zm159.41 18.615c6.1424 7.4046 11.843 14.733 17.061 21.912-11.419 5.0818-23.811 9.9483-36.979 14.459 1.4646-2.4479 2.9217-4.9215 4.3652-7.4219 5.6184-9.7314 10.799-19.409 15.553-28.949zm-130.69 17.207c7.0614 7.9848 14.572 15.991 22.518 23.938 5.0049 5.0049 10.035 9.8218 15.068 14.482-19.793 3.684-38.479 5.8962-55.268 6.6777 4.4829-14.076 10.416-29.285 17.682-45.098zm153.64 13.039c7.0924 10.339 13.133 20.286 17.941 29.561 7.2523 13.99 11.725 26.487 13.121 36.258 1.3965 9.7704-0.22252 16.269-3.9766 20.023-3.754 3.754-10.255 5.375-20.025 3.9785-9.7704-1.3965-22.268-5.8688-36.258-13.121-13.118-6.8004-27.569-16.046-42.6-27.307 6.9989-9.3486 13.949-19.395 20.742-30.037 18.428-5.8289 35.593-12.378 51.055-19.355zm-65.955 23.842c-4.5605 6.7842-9.1689 13.28-13.791 19.455-4.8953-3.8502-9.8356-7.9052-14.801-12.152 6.69-1.5201 13.455-3.1756 20.293-5.0078 2.7894-0.7474 5.5548-1.5136 8.2988-2.2949zm-52.656 63.566c-0.43786 0.40658-0.8806 0.83639-1.3164 1.2344-4.9911 4.5579-9.8356 8.5126-14.473 11.893 0.74812 3.5024 3.0628 6.3847 6.1875 7.9102 4.8896-3.5883 9.906-7.7394 15.029-12.418 0.39487-0.36059 0.79536-0.74838 1.1914-1.1152-0.9517-3.4084-3.4014-6.1606-6.6191-7.5039z"
         color="#000000"
         color-rendering="auto"
         image-rendering="auto"
         shape-rendering="auto"
         solid-color="#000000"
         style="block-progression:tb;isolation:auto;mix-blend-mode:normal;text-decoration-color:#000000;text-decoration-line:none;text-decoration-style:solid;text-indent:0;text-transform:none;white-space:normal;fill:#ffffff;fill-opacity:1"
         id="path10" />
      <circle
         cx="250"
         cy="802.36"
         r="23.335"
         id="circle12"
         style="fill:#ffffff;fill-opacity:1" />
      <path
         d="m389.48 736.11a15.556 15.556 0 0 1 -15.556 15.556 15.556 15.556 0 0 1 -15.556 -15.556 15.556 15.556 0 0 1 15.556 -15.556 15.556 15.556 0 0 1 15.556 15.556z"
         id="path14"
         style="fill:#ffffff;fill-opacity:1" />
      <path
         d="m231.94 931.17a15.556 15.556 0 0 1 -15.556 15.556 15.556 15.556 0 0 1 -15.556 -15.556 15.556 15.556 0 0 1 15.556 -15.556 15.556 15.556 0 0 1 15.556 15.556z"
         id="path16"
         style="fill:#ffffff;fill-opacity:1" />
      <path
         d="m156.78 750.14a15.556 15.556 0 0 1 -15.556 15.556 15.556 15.556 0 0 1 -15.556 -15.556 15.556 15.556 0 0 1 15.556 -15.556 15.556 15.556 0 0 1 15.556 15.556z"
         id="path18"
         style="fill:#ffffff;fill-opacity:1" />
    </g>
  </g>
</svg>
